<svg width="18" height="17" viewBox="0 0 18 17" fill="none" xmlns="http://www.w3.org/2000/svg">
<path d="M8.99999 0.166626C4.40832 0.166626 0.666656 3.90829 0.666656 8.49996C0.666656 13.0916 4.40832 16.8333 8.99999 16.8333C13.5917 16.8333 17.3333 13.0916 17.3333 8.49996C17.3333 3.90829 13.5917 0.166626 8.99999 0.166626ZM12.625 11.475C12.5083 11.675 12.3 11.7833 12.0833 11.7833C11.975 11.7833 11.8667 11.7583 11.7667 11.6916L9.18332 10.15C8.54166 9.76663 8.06666 8.92496 8.06666 8.18329V4.76663C8.06666 4.42496 8.34999 4.14163 8.69166 4.14163C9.03332 4.14163 9.31666 4.42496 9.31666 4.76663V8.18329C9.31666 8.48329 9.56666 8.92496 9.82499 9.07496L12.4083 10.6166C12.7083 10.7916 12.8083 11.175 12.625 11.475Z" fill="white"/>
</svg>
